<mxfile host="app.diagrams.net" modified="2024-05-29T17:04:54.925Z" agent="Mozilla/5.0 (Windows NT 10.0; Win64; x64) AppleWebKit/537.36 (KHTML, like Gecko) Chrome/125.0.0.0 Safari/537.36" etag="kK8pA6g0pt6-7ZwtEbkG" version="24.4.10" type="github">
  <diagram name="Page-1" id="KLMLbkz_-PtjeJySUjGt">
    <mxGraphModel dx="2118" dy="736" grid="0" gridSize="10" guides="1" tooltips="1" connect="1" arrows="1" fold="1" page="0" pageScale="1" pageWidth="827" pageHeight="1169" background="none" math="0" shadow="0">
      <root>
        <mxCell id="0" />
        <mxCell id="1" parent="0" />
        <mxCell id="pco9DQGyCopVpS2-yk5m-1" value="&lt;p style=&quot;margin:0px;margin-top:4px;text-align:center;&quot;&gt;&amp;lt;&amp;lt;requirement&amp;gt;&amp;gt;&lt;br&gt;&lt;b&gt;Schedule Appointment&lt;/b&gt;&lt;/p&gt;&lt;hr&gt;&lt;p&gt;&lt;/p&gt;&lt;p style=&quot;margin:0px;margin-left:8px;text-align:left;&quot;&gt;text=&quot;Patients should be able to schedule an appointment&quot;&lt;br&gt;Id=&quot;3&quot;&lt;/p&gt;" style="shape=rect;overflow=fill;html=1;whiteSpace=wrap;align=center;" parent="1" vertex="1">
          <mxGeometry x="1124" y="671" width="200" height="100" as="geometry" />
        </mxCell>
        <mxCell id="pco9DQGyCopVpS2-yk5m-2" value="" style="endArrow=circlePlus;html=1;rounded=0;strokeWidth=1;endFill=0;entryX=0.5;entryY=1;entryDx=0;entryDy=0;exitX=0.5;exitY=0;exitDx=0;exitDy=0;edgeStyle=orthogonalEdgeStyle;" parent="1" source="pco9DQGyCopVpS2-yk5m-18" target="pco9DQGyCopVpS2-yk5m-1" edge="1">
          <mxGeometry width="50" height="50" relative="1" as="geometry">
            <mxPoint x="1227" y="868" as="sourcePoint" />
            <mxPoint x="750" y="777" as="targetPoint" />
          </mxGeometry>
        </mxCell>
        <mxCell id="pco9DQGyCopVpS2-yk5m-3" value="" style="endArrow=circlePlus;html=1;rounded=0;strokeWidth=1;endFill=0;entryX=0.5;entryY=1;entryDx=0;entryDy=0;exitX=0.5;exitY=0;exitDx=0;exitDy=0;edgeStyle=orthogonalEdgeStyle;" parent="1" source="pco9DQGyCopVpS2-yk5m-15" target="pco9DQGyCopVpS2-yk5m-1" edge="1">
          <mxGeometry width="50" height="50" relative="1" as="geometry">
            <mxPoint x="505" y="868" as="sourcePoint" />
            <mxPoint x="704.3752791878175" y="805" as="targetPoint" />
          </mxGeometry>
        </mxCell>
        <mxCell id="pco9DQGyCopVpS2-yk5m-4" value="" style="endArrow=circlePlus;html=1;rounded=0;strokeWidth=1;endFill=0;entryX=0.5;entryY=1;entryDx=0;entryDy=0;exitX=0.5;exitY=0;exitDx=0;exitDy=0;edgeStyle=orthogonalEdgeStyle;" parent="1" source="pco9DQGyCopVpS2-yk5m-19" target="pco9DQGyCopVpS2-yk5m-1" edge="1">
          <mxGeometry width="50" height="50" relative="1" as="geometry">
            <mxPoint x="1569" y="868" as="sourcePoint" />
            <mxPoint x="754" y="781" as="targetPoint" />
          </mxGeometry>
        </mxCell>
        <mxCell id="pco9DQGyCopVpS2-yk5m-5" value="" style="endArrow=circlePlus;html=1;rounded=0;strokeWidth=1;endFill=0;entryX=0.5;entryY=1;entryDx=0;entryDy=0;exitX=0.5;exitY=0;exitDx=0;exitDy=0;edgeStyle=orthogonalEdgeStyle;" parent="1" source="pco9DQGyCopVpS2-yk5m-11" target="pco9DQGyCopVpS2-yk5m-15" edge="1">
          <mxGeometry width="50" height="50" relative="1" as="geometry">
            <mxPoint x="243" y="1050" as="sourcePoint" />
            <mxPoint x="610" y="968" as="targetPoint" />
          </mxGeometry>
        </mxCell>
        <mxCell id="pco9DQGyCopVpS2-yk5m-6" value="" style="endArrow=circlePlus;html=1;rounded=0;strokeWidth=1;endFill=0;entryX=0.5;entryY=1;entryDx=0;entryDy=0;exitX=0.5;exitY=0;exitDx=0;exitDy=0;edgeStyle=orthogonalEdgeStyle;" parent="1" source="pco9DQGyCopVpS2-yk5m-12" target="pco9DQGyCopVpS2-yk5m-15" edge="1">
          <mxGeometry width="50" height="50" relative="1" as="geometry">
            <mxPoint x="485" y="1050" as="sourcePoint" />
            <mxPoint x="610" y="968" as="targetPoint" />
          </mxGeometry>
        </mxCell>
        <mxCell id="pco9DQGyCopVpS2-yk5m-7" value="" style="endArrow=circlePlus;html=1;rounded=0;strokeWidth=1;endFill=0;entryX=0.5;entryY=1;entryDx=0;entryDy=0;exitX=0.5;exitY=0;exitDx=0;exitDy=0;edgeStyle=orthogonalEdgeStyle;" parent="1" source="pco9DQGyCopVpS2-yk5m-13" target="pco9DQGyCopVpS2-yk5m-15" edge="1">
          <mxGeometry width="50" height="50" relative="1" as="geometry">
            <mxPoint x="708" y="1050" as="sourcePoint" />
            <mxPoint x="592" y="968" as="targetPoint" />
          </mxGeometry>
        </mxCell>
        <mxCell id="pco9DQGyCopVpS2-yk5m-8" value="" style="endArrow=circlePlus;html=1;rounded=0;strokeWidth=1;endFill=0;exitX=0.5;exitY=0;exitDx=0;exitDy=0;entryX=0.5;entryY=1;entryDx=0;entryDy=0;edgeStyle=orthogonalEdgeStyle;" parent="1" source="pco9DQGyCopVpS2-yk5m-14" target="pco9DQGyCopVpS2-yk5m-15" edge="1">
          <mxGeometry width="50" height="50" relative="1" as="geometry">
            <mxPoint x="997" y="1064" as="sourcePoint" />
            <mxPoint x="732" y="982" as="targetPoint" />
          </mxGeometry>
        </mxCell>
        <mxCell id="pco9DQGyCopVpS2-yk5m-9" value="" style="endArrow=circlePlus;html=1;rounded=0;strokeWidth=1;endFill=0;entryX=0.5;entryY=1;entryDx=0;entryDy=0;exitX=0.5;exitY=0;exitDx=0;exitDy=0;edgeStyle=orthogonalEdgeStyle;" parent="1" source="pco9DQGyCopVpS2-yk5m-16" target="pco9DQGyCopVpS2-yk5m-18" edge="1">
          <mxGeometry width="50" height="50" relative="1" as="geometry">
            <mxPoint x="1116" y="1050" as="sourcePoint" />
            <mxPoint x="1227" y="968" as="targetPoint" />
          </mxGeometry>
        </mxCell>
        <mxCell id="pco9DQGyCopVpS2-yk5m-10" value="" style="endArrow=circlePlus;html=1;rounded=0;strokeWidth=1;endFill=0;entryX=0.5;entryY=1;entryDx=0;entryDy=0;exitX=0.5;exitY=0;exitDx=0;exitDy=0;edgeStyle=orthogonalEdgeStyle;" parent="1" source="pco9DQGyCopVpS2-yk5m-17" target="pco9DQGyCopVpS2-yk5m-18" edge="1">
          <mxGeometry width="50" height="50" relative="1" as="geometry">
            <mxPoint x="1344" y="1050" as="sourcePoint" />
            <mxPoint x="1227" y="968" as="targetPoint" />
          </mxGeometry>
        </mxCell>
        <mxCell id="pco9DQGyCopVpS2-yk5m-11" value="&lt;p style=&quot;margin:0px;margin-top:4px;text-align:center;&quot;&gt;&amp;lt;&amp;lt;requirement&amp;gt;&amp;gt;&lt;br&gt;&lt;b&gt;Check speciality&lt;/b&gt;&lt;/p&gt;&lt;hr&gt;&lt;p&gt;&lt;/p&gt;&lt;p style=&quot;margin:0px;margin-left:8px;text-align:left;&quot;&gt;&lt;b&gt;Text&amp;nbsp;&lt;/b&gt;= &quot;Verify if speciality exists&quot;&lt;br&gt;&lt;b&gt;Id&amp;nbsp; &amp;nbsp; &amp;nbsp;&lt;/b&gt;= &quot;3.2.1&quot;&lt;/p&gt;" style="shape=rect;overflow=fill;html=1;whiteSpace=wrap;align=center;" parent="1" vertex="1">
          <mxGeometry x="3" y="1055" width="148" height="100" as="geometry" />
        </mxCell>
        <mxCell id="pco9DQGyCopVpS2-yk5m-12" value="&lt;p style=&quot;margin:0px;margin-top:4px;text-align:center;&quot;&gt;&amp;lt;&amp;lt;requirement&amp;gt;&amp;gt;&lt;br&gt;&lt;b&gt;Check date / hour&lt;/b&gt;&lt;/p&gt;&lt;hr&gt;&lt;p&gt;&lt;/p&gt;&lt;p style=&quot;margin:0px;margin-left:8px;text-align:left;&quot;&gt;&lt;b&gt;Text&amp;nbsp;&lt;/b&gt;= &quot;Verify input type of date and hour&quot;&lt;br&gt;&lt;b&gt;Id&amp;nbsp; &amp;nbsp; &amp;nbsp;&lt;/b&gt;= &quot;3.2.2&quot;&lt;/p&gt;" style="shape=rect;overflow=fill;html=1;whiteSpace=wrap;align=center;" parent="1" vertex="1">
          <mxGeometry x="163" y="1055" width="200" height="100" as="geometry" />
        </mxCell>
        <mxCell id="pco9DQGyCopVpS2-yk5m-13" value="&lt;p style=&quot;margin:0px;margin-top:4px;text-align:center;&quot;&gt;&amp;lt;&amp;lt;requirement&amp;gt;&amp;gt;&lt;br&gt;&lt;b&gt;Check clinic&lt;/b&gt;&lt;/p&gt;&lt;hr&gt;&lt;p&gt;&lt;/p&gt;&lt;p style=&quot;margin:0px;margin-left:8px;text-align:left;&quot;&gt;&lt;b&gt;Text&amp;nbsp;&lt;/b&gt;= &quot;Verify if clinic exists&quot;&lt;br&gt;&lt;b&gt;Id&amp;nbsp; &amp;nbsp; &amp;nbsp;&lt;/b&gt;= &quot;3.2.3&quot;&lt;/p&gt;" style="shape=rect;overflow=fill;html=1;whiteSpace=wrap;align=center;" parent="1" vertex="1">
          <mxGeometry x="376" y="1055" width="200" height="100" as="geometry" />
        </mxCell>
        <mxCell id="pco9DQGyCopVpS2-yk5m-14" value="&lt;p style=&quot;margin:0px;margin-top:4px;text-align:center;&quot;&gt;&amp;lt;&amp;lt;requirement&amp;gt;&amp;gt;&lt;br&gt;&lt;b&gt;Check doctor&lt;/b&gt;&lt;/p&gt;&lt;hr&gt;&lt;p&gt;&lt;/p&gt;&lt;p style=&quot;margin:0px;margin-left:8px;text-align:left;&quot;&gt;&lt;b&gt;Text&amp;nbsp;&lt;/b&gt;= &quot;Verify if doctor exists&quot;&lt;br&gt;&lt;b&gt;Id&amp;nbsp; &amp;nbsp; &amp;nbsp;&lt;/b&gt;= &quot;3.2.4&quot;&lt;/p&gt;" style="shape=rect;overflow=fill;html=1;whiteSpace=wrap;align=center;" parent="1" vertex="1">
          <mxGeometry x="587" y="1055" width="200" height="100" as="geometry" />
        </mxCell>
        <mxCell id="pco9DQGyCopVpS2-yk5m-15" value="&lt;p style=&quot;margin:0px;margin-top:4px;text-align:center;&quot;&gt;&amp;lt;&amp;lt;requirement&amp;gt;&amp;gt;&lt;br&gt;&lt;b&gt;Validate details&lt;/b&gt;&lt;/p&gt;&lt;hr&gt;&lt;p&gt;&lt;/p&gt;&lt;p style=&quot;margin:0px;margin-left:8px;text-align:left;&quot;&gt;&lt;b&gt;Text&amp;nbsp;&lt;/b&gt;= &quot;All inputs should be validated&quot;&lt;br&gt;&lt;b&gt;Id&amp;nbsp; &amp;nbsp; &amp;nbsp;&lt;/b&gt;= &quot;3.2&quot;&lt;/p&gt;" style="shape=rect;overflow=fill;html=1;whiteSpace=wrap;align=center;" parent="1" vertex="1">
          <mxGeometry x="376" y="866" width="200" height="100" as="geometry" />
        </mxCell>
        <mxCell id="pco9DQGyCopVpS2-yk5m-16" value="&lt;p style=&quot;margin:0px;margin-top:4px;text-align:center;&quot;&gt;&amp;lt;&amp;lt;requirement&amp;gt;&amp;gt;&lt;br&gt;&lt;b&gt;Check availability&lt;/b&gt;&lt;/p&gt;&lt;hr&gt;&lt;p&gt;&lt;/p&gt;&lt;p style=&quot;margin:0px;margin-left:8px;text-align:left;&quot;&gt;&lt;b&gt;Text&amp;nbsp;&lt;/b&gt;= &quot;Verify if the appointment can be scheduled for the given date&quot;&lt;br&gt;&lt;b&gt;Id&amp;nbsp; &amp;nbsp; &amp;nbsp;&lt;/b&gt;= &quot;3.3.1&quot;&lt;/p&gt;" style="shape=rect;overflow=fill;html=1;whiteSpace=wrap;align=center;" parent="1" vertex="1">
          <mxGeometry x="1025" y="1050" width="200" height="114" as="geometry" />
        </mxCell>
        <mxCell id="pco9DQGyCopVpS2-yk5m-17" value="&lt;p style=&quot;margin:0px;margin-top:4px;text-align:center;&quot;&gt;&amp;lt;&amp;lt;requirement&amp;gt;&amp;gt;&lt;br&gt;&lt;b&gt;Store appointment&lt;/b&gt;&lt;/p&gt;&lt;hr&gt;&lt;p&gt;&lt;/p&gt;&lt;p style=&quot;margin:0px;margin-left:8px;text-align:left;&quot;&gt;&lt;b&gt;Text&amp;nbsp;&lt;/b&gt;= &quot;Save appointment details on database&quot;&lt;br&gt;&lt;b&gt;Id&amp;nbsp; &amp;nbsp; &amp;nbsp;&lt;/b&gt;= &quot;3.3.3&quot;&lt;/p&gt;" style="shape=rect;overflow=fill;html=1;whiteSpace=wrap;align=center;" parent="1" vertex="1">
          <mxGeometry x="1441" y="1050" width="200" height="100" as="geometry" />
        </mxCell>
        <mxCell id="pco9DQGyCopVpS2-yk5m-18" value="&lt;p style=&quot;margin:0px;margin-top:4px;text-align:center;&quot;&gt;&amp;lt;&amp;lt;requirement&amp;gt;&amp;gt;&lt;br&gt;&lt;b&gt;Register appointment&lt;/b&gt;&lt;/p&gt;&lt;hr&gt;&lt;p&gt;&lt;/p&gt;&lt;p style=&quot;margin:0px;margin-left:8px;text-align:left;&quot;&gt;&lt;b&gt;Text&amp;nbsp;&lt;/b&gt;= &quot;Register appointment in the system&quot;&lt;br&gt;&lt;b&gt;Id&amp;nbsp; &amp;nbsp; &amp;nbsp;&lt;/b&gt;= &quot;3.3&quot;&lt;/p&gt;" style="shape=rect;overflow=fill;html=1;whiteSpace=wrap;align=center;" parent="1" vertex="1">
          <mxGeometry x="1358" y="866" width="200" height="117" as="geometry" />
        </mxCell>
        <mxCell id="pco9DQGyCopVpS2-yk5m-19" value="&lt;p style=&quot;margin:0px;margin-top:4px;text-align:center;&quot;&gt;&amp;lt;&amp;lt;requirement&amp;gt;&amp;gt;&lt;br&gt;&lt;b&gt;Notify patient&lt;/b&gt;&lt;/p&gt;&lt;hr&gt;&lt;p&gt;&lt;/p&gt;&lt;p style=&quot;margin:0px;margin-left:8px;text-align:left;&quot;&gt;&lt;b&gt;Text&amp;nbsp;&lt;/b&gt;= &quot;Patient should be notified upon appointment successful registration or if the details were invalid&quot;&lt;br&gt;&lt;b&gt;Id&amp;nbsp; &amp;nbsp; &amp;nbsp;&lt;/b&gt;= &quot;3.4&quot;&lt;/p&gt;" style="shape=rect;overflow=fill;html=1;whiteSpace=wrap;align=center;" parent="1" vertex="1">
          <mxGeometry x="1846" y="866" width="200" height="132" as="geometry" />
        </mxCell>
        <mxCell id="pco9DQGyCopVpS2-yk5m-20" value="Check availability" style="shape=ellipse;html=1;strokeWidth=3;fontStyle=1;whiteSpace=wrap;align=center;perimeter=ellipsePerimeter;fillColor=#CDA2BE;" parent="1" vertex="1">
          <mxGeometry x="1065" y="1209" width="120" height="60" as="geometry" />
        </mxCell>
        <mxCell id="pco9DQGyCopVpS2-yk5m-21" value="&lt;font style=&quot;font-size: 12px;&quot;&gt;&lt;b&gt;&amp;lt;&amp;lt; Refine &amp;gt;&amp;gt;&lt;/b&gt;&lt;/font&gt;" style="edgeStyle=none;html=1;endArrow=open;endSize=12;dashed=1;verticalAlign=bottom;rounded=0;strokeWidth=2;" parent="1" source="pco9DQGyCopVpS2-yk5m-20" target="pco9DQGyCopVpS2-yk5m-16" edge="1">
          <mxGeometry x="-0.5101" y="-1" width="160" relative="1" as="geometry">
            <mxPoint x="918" y="1233" as="sourcePoint" />
            <mxPoint x="1078" y="1233" as="targetPoint" />
            <mxPoint as="offset" />
          </mxGeometry>
        </mxCell>
        <mxCell id="pco9DQGyCopVpS2-yk5m-22" value="Send email" style="shape=ellipse;html=1;strokeWidth=3;fontStyle=1;whiteSpace=wrap;align=center;perimeter=ellipsePerimeter;fillColor=#CDA2BE;" parent="1" vertex="1">
          <mxGeometry x="1783" y="724" width="120" height="60" as="geometry" />
        </mxCell>
        <mxCell id="pco9DQGyCopVpS2-yk5m-23" value="&lt;font style=&quot;font-size: 12px;&quot;&gt;&lt;b&gt;&amp;lt;&amp;lt; Refine &amp;gt;&amp;gt;&lt;/b&gt;&lt;/font&gt;" style="edgeStyle=none;html=1;endArrow=open;endSize=12;dashed=1;verticalAlign=bottom;rounded=0;strokeWidth=2;" parent="1" source="pco9DQGyCopVpS2-yk5m-22" target="pco9DQGyCopVpS2-yk5m-19" edge="1">
          <mxGeometry x="-0.2659" y="-2" width="160" relative="1" as="geometry">
            <mxPoint x="1760" y="1095" as="sourcePoint" />
            <mxPoint x="1946" y="1012" as="targetPoint" />
            <mxPoint as="offset" />
          </mxGeometry>
        </mxCell>
        <mxCell id="pco9DQGyCopVpS2-yk5m-24" value="&lt;p style=&quot;margin:0px;margin-top:4px;text-align:center;&quot;&gt;&amp;lt;&amp;lt;requirement&amp;gt;&amp;gt;&lt;br&gt;&lt;b&gt;Provide details&lt;/b&gt;&lt;/p&gt;&lt;hr&gt;&lt;p&gt;&lt;/p&gt;&lt;p style=&quot;margin:0px;margin-left:8px;text-align:left;&quot;&gt;&lt;b&gt;Text&amp;nbsp;&lt;/b&gt;= &quot;Patients should provide the appointment details&quot;&lt;br&gt;&lt;b&gt;Id&amp;nbsp; &amp;nbsp; &amp;nbsp;&lt;/b&gt;= &quot;3.1&quot;&lt;/p&gt;" style="shape=rect;overflow=fill;html=1;whiteSpace=wrap;align=center;" parent="1" vertex="1">
          <mxGeometry x="74" y="866" width="200" height="100" as="geometry" />
        </mxCell>
        <mxCell id="pco9DQGyCopVpS2-yk5m-25" value="" style="endArrow=circlePlus;html=1;rounded=0;strokeWidth=1;endFill=0;entryX=0.5;entryY=1;entryDx=0;entryDy=0;exitX=0.5;exitY=0;exitDx=0;exitDy=0;edgeStyle=orthogonalEdgeStyle;" parent="1" source="pco9DQGyCopVpS2-yk5m-24" target="pco9DQGyCopVpS2-yk5m-1" edge="1">
          <mxGeometry width="50" height="50" relative="1" as="geometry">
            <mxPoint x="525" y="878" as="sourcePoint" />
            <mxPoint x="1234" y="781" as="targetPoint" />
          </mxGeometry>
        </mxCell>
        <mxCell id="pco9DQGyCopVpS2-yk5m-26" value="&amp;lt;&amp;lt; &lt;b&gt;Block &lt;/b&gt;&amp;gt;&amp;gt;&lt;div&gt;&lt;br&gt;&lt;b&gt;Appointment&lt;/b&gt;&lt;/div&gt;" style="shape=rect;html=1;whiteSpace=wrap;align=center;verticalAlign=top;fillColor=#FFF2CC;" parent="1" vertex="1">
          <mxGeometry x="58" y="743" width="120" height="60" as="geometry" />
        </mxCell>
        <mxCell id="pco9DQGyCopVpS2-yk5m-27" value="&amp;lt;&amp;lt; &lt;b&gt;Block &lt;/b&gt;&amp;gt;&amp;gt;&lt;div&gt;&lt;br&gt;&lt;b&gt;Email&lt;/b&gt;&lt;/div&gt;" style="shape=rect;html=1;whiteSpace=wrap;align=center;verticalAlign=top;fillColor=#FFF2CC;" parent="1" vertex="1">
          <mxGeometry x="1926" y="724" width="120" height="60" as="geometry" />
        </mxCell>
        <mxCell id="pco9DQGyCopVpS2-yk5m-28" value="&lt;font style=&quot;font-size: 12px;&quot;&gt;&lt;b&gt;&amp;lt;&amp;lt; Satisfy &amp;gt;&amp;gt;&lt;/b&gt;&lt;/font&gt;" style="edgeStyle=none;html=1;endArrow=open;endSize=12;dashed=1;verticalAlign=bottom;rounded=0;strokeWidth=2;" parent="1" source="pco9DQGyCopVpS2-yk5m-27" target="pco9DQGyCopVpS2-yk5m-19" edge="1">
          <mxGeometry x="-0.0858" y="4" width="160" relative="1" as="geometry">
            <mxPoint x="2006" y="1039" as="sourcePoint" />
            <mxPoint x="2166" y="1039" as="targetPoint" />
            <mxPoint as="offset" />
          </mxGeometry>
        </mxCell>
        <mxCell id="pco9DQGyCopVpS2-yk5m-29" value="&lt;font style=&quot;font-size: 12px;&quot;&gt;&lt;b&gt;&amp;lt;&amp;lt; Satisfy &amp;gt;&amp;gt;&lt;/b&gt;&lt;/font&gt;" style="edgeStyle=none;html=1;endArrow=open;endSize=12;dashed=1;verticalAlign=bottom;rounded=0;strokeWidth=2;" parent="1" source="pco9DQGyCopVpS2-yk5m-26" target="pco9DQGyCopVpS2-yk5m-24" edge="1">
          <mxGeometry x="0.0988" y="-4" width="160" relative="1" as="geometry">
            <mxPoint x="14" y="888" as="sourcePoint" />
            <mxPoint x="-124" y="834" as="targetPoint" />
            <mxPoint as="offset" />
          </mxGeometry>
        </mxCell>
        <mxCell id="pco9DQGyCopVpS2-yk5m-30" value="&amp;lt;&amp;lt; &lt;b&gt;Block &lt;/b&gt;&amp;gt;&amp;gt;&lt;div&gt;&lt;br&gt;&lt;b&gt;Validation controller&lt;/b&gt;&lt;/div&gt;" style="shape=rect;html=1;whiteSpace=wrap;align=center;verticalAlign=top;fillColor=#FFF2CC;" parent="1" vertex="1">
          <mxGeometry x="698" y="886" width="130" height="60" as="geometry" />
        </mxCell>
        <mxCell id="pco9DQGyCopVpS2-yk5m-31" value="&lt;font style=&quot;font-size: 12px;&quot;&gt;&lt;b&gt;&amp;lt;&amp;lt; Satisfy &amp;gt;&amp;gt;&lt;/b&gt;&lt;/font&gt;" style="edgeStyle=none;html=1;endArrow=open;endSize=12;dashed=1;verticalAlign=bottom;rounded=0;strokeWidth=2;" parent="1" source="pco9DQGyCopVpS2-yk5m-30" target="pco9DQGyCopVpS2-yk5m-15" edge="1">
          <mxGeometry x="-0.0556" y="-3" width="160" relative="1" as="geometry">
            <mxPoint x="702" y="908" as="sourcePoint" />
            <mxPoint x="818" y="908" as="targetPoint" />
            <mxPoint as="offset" />
          </mxGeometry>
        </mxCell>
        <mxCell id="pco9DQGyCopVpS2-yk5m-32" value="&amp;lt;&amp;lt; &lt;b&gt;Block &lt;/b&gt;&amp;gt;&amp;gt;&lt;div&gt;&lt;br&gt;&lt;b&gt;Appointment controller&lt;/b&gt;&lt;/div&gt;" style="shape=rect;html=1;whiteSpace=wrap;align=center;verticalAlign=top;fillColor=#FFF2CC;" parent="1" vertex="1">
          <mxGeometry x="824" y="691" width="159" height="60" as="geometry" />
        </mxCell>
        <mxCell id="pco9DQGyCopVpS2-yk5m-33" value="&lt;font style=&quot;font-size: 12px;&quot;&gt;&lt;b&gt;&amp;lt;&amp;lt; Satisfy &amp;gt;&amp;gt;&lt;/b&gt;&lt;/font&gt;" style="edgeStyle=none;html=1;endArrow=open;endSize=12;dashed=1;verticalAlign=bottom;rounded=0;strokeWidth=2;" parent="1" source="pco9DQGyCopVpS2-yk5m-32" target="pco9DQGyCopVpS2-yk5m-1" edge="1">
          <mxGeometry x="0.0263" y="-12" width="160" relative="1" as="geometry">
            <mxPoint x="1641.5" y="993" as="sourcePoint" />
            <mxPoint x="1711.5" y="713.7419106317411" as="targetPoint" />
            <mxPoint as="offset" />
          </mxGeometry>
        </mxCell>
        <mxCell id="pco9DQGyCopVpS2-yk5m-34" value="&amp;lt;&amp;lt; &lt;b&gt;Block &lt;/b&gt;&amp;gt;&amp;gt;&lt;div&gt;&lt;br&gt;&lt;b&gt;Message controller&lt;/b&gt;&lt;/div&gt;" style="shape=rect;html=1;whiteSpace=wrap;align=center;verticalAlign=top;fillColor=#FFF2CC;" parent="1" vertex="1">
          <mxGeometry x="1886" y="1065" width="120" height="60" as="geometry" />
        </mxCell>
        <mxCell id="pco9DQGyCopVpS2-yk5m-35" value="&lt;font style=&quot;font-size: 12px;&quot;&gt;&lt;b&gt;&amp;lt;&amp;lt; Satisfy &amp;gt;&amp;gt;&lt;/b&gt;&lt;/font&gt;" style="edgeStyle=none;html=1;endArrow=open;endSize=12;dashed=1;verticalAlign=bottom;rounded=0;strokeWidth=2;" parent="1" source="pco9DQGyCopVpS2-yk5m-34" target="pco9DQGyCopVpS2-yk5m-19" edge="1">
          <mxGeometry x="-0.0858" y="4" width="160" relative="1" as="geometry">
            <mxPoint x="1976" y="1201" as="sourcePoint" />
            <mxPoint x="2020" y="1107" as="targetPoint" />
            <mxPoint as="offset" />
          </mxGeometry>
        </mxCell>
        <mxCell id="pco9DQGyCopVpS2-yk5m-40" value="&lt;p style=&quot;margin:0px;margin-top:4px;text-align:center;&quot;&gt;&amp;lt;&amp;lt;requirement&amp;gt;&amp;gt;&lt;br&gt;&lt;b&gt;Notify patient if wrong input&lt;/b&gt;&lt;/p&gt;&lt;hr&gt;&lt;p&gt;&lt;/p&gt;&lt;p style=&quot;margin:0px;margin-left:8px;text-align:left;&quot;&gt;&lt;b&gt;Text&amp;nbsp;&lt;/b&gt;= &quot;Patient should be notified if the provided input is wrong&quot;&lt;br&gt;&lt;b&gt;Id&amp;nbsp; &amp;nbsp; &amp;nbsp;&lt;/b&gt;= &quot;3.2.5&quot;&lt;/p&gt;" style="shape=rect;overflow=fill;html=1;whiteSpace=wrap;align=center;" parent="1" vertex="1">
          <mxGeometry x="796" y="1055" width="200" height="100" as="geometry" />
        </mxCell>
        <mxCell id="pco9DQGyCopVpS2-yk5m-41" value="" style="endArrow=circlePlus;html=1;rounded=0;strokeWidth=1;endFill=0;exitX=0.5;exitY=0;exitDx=0;exitDy=0;entryX=0.5;entryY=1;entryDx=0;entryDy=0;edgeStyle=orthogonalEdgeStyle;" parent="1" source="pco9DQGyCopVpS2-yk5m-40" target="pco9DQGyCopVpS2-yk5m-15" edge="1">
          <mxGeometry width="50" height="50" relative="1" as="geometry">
            <mxPoint x="718" y="1065" as="sourcePoint" />
            <mxPoint x="618" y="978" as="targetPoint" />
          </mxGeometry>
        </mxCell>
        <mxCell id="pco9DQGyCopVpS2-yk5m-44" value="Send email" style="shape=ellipse;html=1;strokeWidth=3;fontStyle=1;whiteSpace=wrap;align=center;perimeter=ellipsePerimeter;fillColor=#CDA2BE;" parent="1" vertex="1">
          <mxGeometry x="952" y="937" width="120" height="60" as="geometry" />
        </mxCell>
        <mxCell id="pco9DQGyCopVpS2-yk5m-45" value="&lt;font style=&quot;font-size: 12px;&quot;&gt;&lt;b&gt;&amp;lt;&amp;lt; Refine &amp;gt;&amp;gt;&lt;/b&gt;&lt;/font&gt;" style="edgeStyle=none;html=1;endArrow=open;endSize=12;dashed=1;verticalAlign=bottom;rounded=0;strokeWidth=2;" parent="1" source="pco9DQGyCopVpS2-yk5m-44" target="pco9DQGyCopVpS2-yk5m-40" edge="1">
          <mxGeometry x="-0.0557" y="3" width="160" relative="1" as="geometry">
            <mxPoint x="755" y="1269" as="sourcePoint" />
            <mxPoint x="945" y="1184" as="targetPoint" />
            <mxPoint as="offset" />
          </mxGeometry>
        </mxCell>
        <mxCell id="pco9DQGyCopVpS2-yk5m-46" value="&amp;lt;&amp;lt; &lt;b&gt;Block &lt;/b&gt;&amp;gt;&amp;gt;&lt;div&gt;&lt;br&gt;&lt;b&gt;Message controller&lt;/b&gt;&lt;/div&gt;" style="shape=rect;html=1;whiteSpace=wrap;align=center;verticalAlign=top;fillColor=#FFF2CC;" parent="1" vertex="1">
          <mxGeometry x="698" y="1212.5" width="120" height="60" as="geometry" />
        </mxCell>
        <mxCell id="pco9DQGyCopVpS2-yk5m-47" value="&lt;font style=&quot;font-size: 12px;&quot;&gt;&lt;b&gt;&amp;lt;&amp;lt; Satisfy &amp;gt;&amp;gt;&lt;/b&gt;&lt;/font&gt;" style="edgeStyle=none;html=1;endArrow=open;endSize=12;dashed=1;verticalAlign=bottom;rounded=0;strokeWidth=2;" parent="1" source="pco9DQGyCopVpS2-yk5m-46" target="pco9DQGyCopVpS2-yk5m-40" edge="1">
          <mxGeometry x="-0.299" width="160" relative="1" as="geometry">
            <mxPoint x="547" y="1509" as="sourcePoint" />
            <mxPoint x="621" y="1268" as="targetPoint" />
            <mxPoint as="offset" />
          </mxGeometry>
        </mxCell>
        <mxCell id="pco9DQGyCopVpS2-yk5m-48" value="Register Appointment" style="shape=ellipse;html=1;strokeWidth=3;fontStyle=1;whiteSpace=wrap;align=center;perimeter=ellipsePerimeter;fillColor=#CDA2BE;" parent="1" vertex="1">
          <mxGeometry x="1112" y="894.5" width="120" height="60" as="geometry" />
        </mxCell>
        <mxCell id="pco9DQGyCopVpS2-yk5m-49" value="&lt;font style=&quot;font-size: 12px;&quot;&gt;&lt;b&gt;&amp;lt;&amp;lt; Refine &amp;gt;&amp;gt;&lt;/b&gt;&lt;/font&gt;" style="edgeStyle=none;html=1;endArrow=open;endSize=12;dashed=1;verticalAlign=bottom;rounded=0;strokeWidth=2;" parent="1" source="pco9DQGyCopVpS2-yk5m-48" target="pco9DQGyCopVpS2-yk5m-18" edge="1">
          <mxGeometry x="-0.0015" y="6" width="160" relative="1" as="geometry">
            <mxPoint x="1078" y="1400" as="sourcePoint" />
            <mxPoint x="1285" y="1317" as="targetPoint" />
            <mxPoint as="offset" />
          </mxGeometry>
        </mxCell>
        <mxCell id="pco9DQGyCopVpS2-yk5m-50" value="&lt;p style=&quot;margin:0px;margin-top:4px;text-align:center;&quot;&gt;&amp;lt;&amp;lt;requirement&amp;gt;&amp;gt;&lt;br&gt;&lt;b&gt;Propose altenative dates if not available&lt;/b&gt;&lt;/p&gt;&lt;hr&gt;&lt;p&gt;&lt;/p&gt;&lt;p style=&quot;margin:0px;margin-left:8px;text-align:left;&quot;&gt;&lt;b&gt;Text&amp;nbsp;&lt;/b&gt;= &quot;Propose alternative dates if the appointment can&#39;t be scheduled for the given date&quot;&lt;br&gt;&lt;b&gt;Id&amp;nbsp; &amp;nbsp; &amp;nbsp;&lt;/b&gt;= &quot;3.3.2&quot;&lt;/p&gt;" style="shape=rect;overflow=fill;html=1;whiteSpace=wrap;align=center;" parent="1" vertex="1">
          <mxGeometry x="1232" y="1050" width="200" height="128" as="geometry" />
        </mxCell>
        <mxCell id="pco9DQGyCopVpS2-yk5m-51" value="" style="endArrow=circlePlus;html=1;rounded=0;strokeWidth=1;endFill=0;entryX=0.5;entryY=1;entryDx=0;entryDy=0;exitX=0.5;exitY=0;exitDx=0;exitDy=0;edgeStyle=orthogonalEdgeStyle;" parent="1" source="pco9DQGyCopVpS2-yk5m-50" target="pco9DQGyCopVpS2-yk5m-18" edge="1">
          <mxGeometry width="50" height="50" relative="1" as="geometry">
            <mxPoint x="1135" y="1060" as="sourcePoint" />
            <mxPoint x="1234" y="995" as="targetPoint" />
          </mxGeometry>
        </mxCell>
        <mxCell id="pco9DQGyCopVpS2-yk5m-52" value="&amp;lt;&amp;lt; &lt;b&gt;Block &lt;/b&gt;&amp;gt;&amp;gt;&lt;div&gt;&lt;br&gt;&lt;b&gt;Email&lt;/b&gt;&lt;/div&gt;" style="shape=rect;html=1;whiteSpace=wrap;align=center;verticalAlign=top;fillColor=#FFF2CC;" parent="1" vertex="1">
          <mxGeometry x="839" y="1212.5" width="120" height="60" as="geometry" />
        </mxCell>
        <mxCell id="pco9DQGyCopVpS2-yk5m-53" value="&lt;font style=&quot;font-size: 12px;&quot;&gt;&lt;b&gt;&amp;lt;&amp;lt; Satisfy &amp;gt;&amp;gt;&lt;/b&gt;&lt;/font&gt;" style="edgeStyle=none;html=1;endArrow=open;endSize=12;dashed=1;verticalAlign=bottom;rounded=0;strokeWidth=2;" parent="1" source="pco9DQGyCopVpS2-yk5m-52" target="pco9DQGyCopVpS2-yk5m-40" edge="1">
          <mxGeometry x="-0.2525" y="-2" width="160" relative="1" as="geometry">
            <mxPoint x="785" y="1539" as="sourcePoint" />
            <mxPoint x="829" y="1428" as="targetPoint" />
            <mxPoint as="offset" />
          </mxGeometry>
        </mxCell>
        <mxCell id="FLagMrJH3h0i13YWnTFO-3" value="&amp;lt;&amp;lt; &lt;b&gt;Block &lt;/b&gt;&amp;gt;&amp;gt;&lt;div&gt;&lt;br&gt;&lt;b&gt;Appointment&lt;/b&gt;&lt;/div&gt;" style="shape=rect;html=1;whiteSpace=wrap;align=center;verticalAlign=top;fillColor=#FFF2CC;" parent="1" vertex="1">
          <mxGeometry x="1678" y="892.5" width="120" height="60" as="geometry" />
        </mxCell>
        <mxCell id="FLagMrJH3h0i13YWnTFO-4" value="&lt;font style=&quot;font-size: 12px;&quot;&gt;&lt;b&gt;&amp;lt;&amp;lt; Satisfy &amp;gt;&amp;gt;&lt;/b&gt;&lt;/font&gt;" style="edgeStyle=none;html=1;endArrow=open;endSize=12;dashed=1;verticalAlign=bottom;rounded=0;strokeWidth=2;" parent="1" source="FLagMrJH3h0i13YWnTFO-3" target="pco9DQGyCopVpS2-yk5m-18" edge="1">
          <mxGeometry x="0.0059" y="-2" width="160" relative="1" as="geometry">
            <mxPoint x="1836" y="943" as="sourcePoint" />
            <mxPoint x="1689" y="842" as="targetPoint" />
            <mxPoint as="offset" />
          </mxGeometry>
        </mxCell>
        <mxCell id="FLagMrJH3h0i13YWnTFO-5" value="&lt;p style=&quot;margin:0px;margin-top:4px;text-align:center;&quot;&gt;&amp;lt;&amp;lt;requirement&amp;gt;&amp;gt;&lt;br&gt;&lt;b&gt;Retry operation with new connection&lt;/b&gt;&lt;/p&gt;&lt;hr&gt;&lt;p&gt;&lt;/p&gt;&lt;p style=&quot;margin:0px;margin-left:8px;text-align:left;&quot;&gt;&lt;b&gt;Text&amp;nbsp;&lt;/b&gt;= &quot;Retry storing the appointment with a new connection&quot;&lt;br&gt;&lt;b&gt;Id&amp;nbsp; &amp;nbsp; &amp;nbsp;&lt;/b&gt;= &quot;3.3.4&quot;&lt;/p&gt;" style="shape=rect;overflow=fill;html=1;whiteSpace=wrap;align=center;" parent="1" vertex="1">
          <mxGeometry x="1650" y="1050" width="200" height="116" as="geometry" />
        </mxCell>
        <mxCell id="FLagMrJH3h0i13YWnTFO-6" value="" style="endArrow=circlePlus;html=1;rounded=0;strokeWidth=1;endFill=0;entryX=0.5;entryY=1;entryDx=0;entryDy=0;exitX=0.5;exitY=0;exitDx=0;exitDy=0;edgeStyle=orthogonalEdgeStyle;" parent="1" source="FLagMrJH3h0i13YWnTFO-5" target="pco9DQGyCopVpS2-yk5m-18" edge="1">
          <mxGeometry width="50" height="50" relative="1" as="geometry">
            <mxPoint x="1577" y="1060" as="sourcePoint" />
            <mxPoint x="1234" y="995" as="targetPoint" />
          </mxGeometry>
        </mxCell>
        <mxCell id="FLagMrJH3h0i13YWnTFO-9" style="rounded=0;orthogonalLoop=1;jettySize=auto;html=1;endArrow=none;endFill=0;strokeWidth=2;dashed=1;" parent="1" source="FLagMrJH3h0i13YWnTFO-7" target="pco9DQGyCopVpS2-yk5m-17" edge="1">
          <mxGeometry relative="1" as="geometry" />
        </mxCell>
        <mxCell id="FLagMrJH3h0i13YWnTFO-7" value="&lt;span style=&quot;background-color: initial;&quot;&gt;&lt;b&gt;&amp;lt;&amp;lt; Problem &amp;gt;&amp;gt;&lt;/b&gt;&lt;/span&gt;&lt;div&gt;&lt;div style=&quot;font-weight: bold; text-align: left;&quot;&gt;&lt;br&gt;&lt;/div&gt;&lt;div style=&quot;&quot;&gt;Unable to store appointment in the database due to connection timeout&lt;/div&gt;&lt;/div&gt;" style="shape=note;size=15;align=center;spacingLeft=0;html=1;whiteSpace=wrap;verticalAlign=top;strokeWidth=2;" parent="1" vertex="1">
          <mxGeometry x="1454.5" y="1183" width="173" height="96.5" as="geometry" />
        </mxCell>
        <mxCell id="FLagMrJH3h0i13YWnTFO-11" value="&lt;span style=&quot;background-color: initial;&quot;&gt;&lt;b&gt;&amp;lt;&amp;lt; Rationale &amp;gt;&amp;gt;&lt;/b&gt;&lt;/span&gt;&lt;div&gt;&lt;div style=&quot;font-weight: bold; text-align: left;&quot;&gt;&lt;br&gt;&lt;/div&gt;&lt;div style=&quot;&quot;&gt;Solves the problem of not being able to store the appointment due to connection timeout&lt;/div&gt;&lt;/div&gt;" style="shape=note;size=15;align=center;spacingLeft=0;html=1;whiteSpace=wrap;verticalAlign=top;strokeWidth=2;" parent="1" vertex="1">
          <mxGeometry x="1668" y="1186" width="173" height="93.5" as="geometry" />
        </mxCell>
        <mxCell id="FLagMrJH3h0i13YWnTFO-12" style="rounded=0;orthogonalLoop=1;jettySize=auto;html=1;endArrow=none;endFill=0;strokeWidth=2;dashed=1;" parent="1" source="FLagMrJH3h0i13YWnTFO-11" target="FLagMrJH3h0i13YWnTFO-5" edge="1">
          <mxGeometry relative="1" as="geometry">
            <mxPoint x="1760" y="1247" as="sourcePoint" />
            <mxPoint x="1760" y="1176" as="targetPoint" />
          </mxGeometry>
        </mxCell>
        <mxCell id="0z4rVsOYoe5zOINFyjDt-1" value="&amp;lt;&amp;lt; &lt;b&gt;Block &lt;/b&gt;&amp;gt;&amp;gt;&lt;div&gt;&lt;br&gt;&lt;b&gt;Appointment Interface&lt;/b&gt;&lt;/div&gt;" style="shape=rect;html=1;whiteSpace=wrap;align=center;verticalAlign=top;fillColor=#FFF2CC;" parent="1" vertex="1">
          <mxGeometry x="251" y="748" width="152" height="60" as="geometry" />
        </mxCell>
        <mxCell id="0z4rVsOYoe5zOINFyjDt-2" value="&lt;font style=&quot;font-size: 12px;&quot;&gt;&lt;b&gt;&amp;lt;&amp;lt; Satisfy &amp;gt;&amp;gt;&lt;/b&gt;&lt;/font&gt;" style="edgeStyle=none;html=1;endArrow=open;endSize=12;dashed=1;verticalAlign=bottom;rounded=0;strokeWidth=2;" parent="1" source="0z4rVsOYoe5zOINFyjDt-1" target="pco9DQGyCopVpS2-yk5m-24" edge="1">
          <mxGeometry x="0.2312" y="5" width="160" relative="1" as="geometry">
            <mxPoint x="-3" y="772" as="sourcePoint" />
            <mxPoint x="113" y="772" as="targetPoint" />
            <mxPoint as="offset" />
          </mxGeometry>
        </mxCell>
      </root>
    </mxGraphModel>
  </diagram>
</mxfile>
